# xmcd
#
# Track frame offsets:
#	150
#	13425
#	23506
#	37739
#	47559
#	58296
#	74872
#	86856
#	103330
#	118172
#	136397
#	155281
#	177163
#	194929
#
# Disc length: 2779 seconds
#
# Revision: 0
# Processed by: cddbd v1.5.2PL0 Copyright (c) Steve Scherf et al.
# Submitted via: EZCDAudioConverter 2.1.7.1
#
DISCID=d20ad90e
DTITLE=Jack White - Acoustic Recordings 1998-2016 1/2
DYEAR=1900
DGENRE=
TTITLE0=Sugar Never Tasted So Good
TTITLE1=Apple Blossom [Remixed]
TTITLE2=I'm Bound To Pack It Up [Remixed]
TTITLE3=Hotel Yorba
TTITLE4=We're Going To Be Friends
TTITLE5=You've Got Her In Your Pocket
TTITLE6=Well It's True That We Love One Another
TTITLE7=Never Far Away
TTITLE8=Forever For Her (Is Over For Me)
TTITLE9=White Moon
TTITLE10=As Ugly As I Seem
TTITLE11=City Lights [Previously Unreleased White Stripes Track]
TTITLE12=Honey, We Can't Afford To Look This Cheap
TTITLE13=Effect And Cause
EXTD=
EXTT0=
EXTT1=
EXTT2=
EXTT3=
EXTT4=
EXTT5=
EXTT6=
EXTT7=
EXTT8=
EXTT9=
EXTT10=
EXTT11=
EXTT12=
EXTT13=
PLAYORDER=
